<?xml version="1.0" encoding="UTF-8"?>
<svg width="8px" height="16px" viewBox="0 0 8 16" version="1.1" xmlns="http://www.w3.org/2000/svg" xmlns:xlink="http://www.w3.org/1999/xlink">
    <!-- Generator: Sketch 41.2 (35397) - http://www.bohemiancoding.com/sketch -->
    <title>facebook icon</title>
    <desc>Created with Sketch.</desc>
    <defs></defs>
    <g id="Page-1" stroke="none" stroke-width="1" fill="none" fill-rule="evenodd">
        <g id="Home-page-Copy" transform="translate(-963.000000, -3000.000000)" fill="#999999">
            <g id="Foot" transform="translate(0.000000, 2840.000000)">
                <g id="social" transform="translate(868.000000, 147.000000)">
                    <g id="facebook" transform="translate(79.000000, 0.000000)">
                        <g id="facebook-icon" transform="translate(16.000000, 13.117117)">
                            <path d="M5.04924838,15.1142948 L5.04924838,8.21993265 L7.34270571,8.21993265 L7.68611841,5.5330774 L5.04924838,5.5330774 L5.04924838,3.81769008 C5.04924838,3.03978348 5.26333361,2.5096658 6.36888151,2.5096658 L7.77895486,2.50904409 L7.77895486,0.105899193 C7.53508802,0.0731554111 6.6980538,6.83897383e-14 5.7242296,6.83897383e-14 C3.69120726,6.83897383e-14 2.29934519,1.25213879 2.29934519,3.55159504 L2.29934519,5.5330774 L0,5.5330774 L0,8.21993265 L2.29934519,8.21993265 L2.29934519,15.1142948 L5.04924838,15.1142948 Z"></path>
                        </g>
                    </g>
                </g>
            </g>
        </g>
    </g>
</svg>