<?xml version="1.0" encoding="UTF-8"?>
<svg width="16px" height="17px" viewBox="0 0 16 17" version="1.1" xmlns="http://www.w3.org/2000/svg" xmlns:xlink="http://www.w3.org/1999/xlink">
    <!-- Generator: Sketch 41.2 (35397) - http://www.bohemiancoding.com/sketch -->
    <title>instagram icon</title>
    <desc>Created with Sketch.</desc>
    <defs></defs>
    <g id="Page-1" stroke="none" stroke-width="1" fill="none" fill-rule="evenodd">
        <g id="Home-page-Copy" transform="translate(-960.000000, -3055.000000)" fill="#999999">
            <g id="Foot" transform="translate(0.000000, 2840.000000)">
                <g id="social" transform="translate(868.000000, 147.000000)">
                    <g id="instagram" transform="translate(60.000000, 11.099099)">
                        <g id="instagram-icon" transform="translate(32.000000, 57.513514)">
                            <path d="M16,11.410147 C16,12.8060692 15.5169811,14.0199147 14.6716981,14.8696064 C13.8264151,15.7192982 12.6188679,16.1441441 11.290566,16.1441441 L4.70943396,16.1441441 C3.38113208,16.1441441 2.17358491,15.7192982 1.32830189,14.8696064 C0.422641509,14.0199147 0,12.8060692 0,11.410147 L0,4.73399716 C0,1.94215268 1.87169811,0 4.70943396,0 L11.3509434,0 C12.7396226,0 13.8867925,0.48553817 14.7320755,1.33522997 C15.5773585,2.18492176 16,3.33807492 16,4.73399716 L16,11.410147 L16,11.410147 Z M11.0138249,2.01801802 L4.93087558,2.01801802 C4.04608295,2.01801802 3.2718894,2.29700668 2.77419355,2.79918628 C2.2764977,3.30136588 2,4.08253415 2,4.97529788 L2,11.1130485 C2,12.0058123 2.2764977,12.7869805 2.82949309,13.3449579 C3.38248848,13.8471375 4.10138249,14.1261261 4.98617512,14.1261261 L11.0138249,14.1261261 C11.8986175,14.1261261 12.6728111,13.8471375 13.1705069,13.3449579 C13.7235023,12.8427783 14,12.06161 14,11.1688463 L14,5.03109561 C14,4.13833188 13.7235023,3.41296135 13.2258065,2.85498402 C12.6728111,2.29700668 11.9539171,2.01801802 11.0138249,2.01801802 L11.0138249,2.01801802 Z" id="shape"></path>
                            <path d="M12,5.04504505 C11.4375,5.04504505 11,4.6036036 11,4.03603604 C11,3.46846847 11.4375,3.02702703 12,3.02702703 C12.5625,3.02702703 13,3.46846847 13,4.03603604 C13,4.6036036 12.5625,5.04504505 12,5.04504505 Z M7.97080292,12.1081081 C5.75182482,12.1081081 4,10.2681505 4,8.07207207 C4,5.81664017 5.81021898,4.03603604 7.97080292,4.03603604 C10.1313869,4.03603604 12,5.81664017 12,8.07207207 C12,10.327504 10.189781,12.1081081 7.97080292,12.1081081 Z M8,10.0900901 C9.1045695,10.0900901 10,9.18659265 10,8.07207207 C10,6.9575515 9.1045695,6.05405405 8,6.05405405 C6.8954305,6.05405405 6,6.9575515 6,8.07207207 C6,9.18659265 6.8954305,10.0900901 8,10.0900901 Z" id="shape"></path>
                        </g>
                    </g>
                </g>
            </g>
        </g>
    </g>
</svg>