<?xml version="1.0" encoding="UTF-8"?>
<svg width="98px" height="25px" viewBox="0 0 98 25" version="1.1" xmlns="http://www.w3.org/2000/svg" xmlns:xlink="http://www.w3.org/1999/xlink">
    <!-- Generator: Sketch 41.2 (35397) - http://www.bohemiancoding.com/sketch -->
    <title>say final logo</title>
    <desc>Created with Sketch.</desc>
    <defs></defs>
    <g id="Page-1" stroke="none" stroke-width="1" fill="none" fill-rule="evenodd">
        <g id="Home-page-Copy" transform="translate(-193.000000, -2920.000000)">
            <g id="Foot" transform="translate(0.000000, 2840.000000)">
                <g id="Footer">
                    <g id="Links" transform="translate(192.000000, 80.395062)">
                        <g id="Group-11">
                            <g id="say-final-logo" transform="translate(1.000000, 0.000000)">
                                <path d="M18.0976825,5.7949838 C16.4503423,5.7949838 15.044066,6.37673738 13.8793732,7.53977213 C12.714433,8.70278201 12.132099,10.1122732 12.132099,11.7675495 C12.132099,13.4378191 12.7107959,14.854521 13.8683629,16.0178292 C15.0259546,17.1810629 16.4356206,17.7625927 18.0976825,17.7625927 C19.1619216,17.7625927 20.1241732,17.5181751 20.9839175,17.0294395 L20.9839175,17.7628911 L23.852734,17.7628911 L23.852734,11.7675495 L23.852734,5.79441191 L20.9839175,5.79441191 L20.9839175,6.52363656 C20.1241732,6.03778517 19.1619216,5.7949838 18.0976825,5.7949838 Z M2.51292371,3.10962297 L36.3635876,3.10962297 C37.7044454,3.10962297 38.8012948,4.21604136 38.8012948,5.55929365 L38.8012948,17.9710065 C38.8012948,19.3163723 37.7023423,20.4207518 36.3635876,20.4207518 L35.8772041,20.4207518 L35.8772041,12.1215696 L35.8772041,5.79441191 L33.0580948,5.79441191 L33.0580948,12.135618 C33.0580948,12.9080819 32.7865237,13.5665423 32.2475381,14.1115711 C31.7048907,14.6605534 31.053699,14.9332418 30.2915381,14.9332418 C29.5296495,14.9332418 28.8817979,14.6603296 28.3463258,14.1115711 C27.8141938,13.566244 27.5457155,12.9080819 27.5457155,12.135618 L27.5457155,5.79441191 L24.6853113,5.79441191 L24.6853113,12.1215696 C24.6853113,13.6740065 25.2316701,14.9997791 26.3243134,16.0978182 C27.4169567,17.1958572 28.7359175,17.745113 30.2812948,17.745113 C31.3097567,17.745113 32.2356866,17.5076575 33.0580948,17.0326221 L33.0580948,23.8681086 L31.2293196,20.4223183 L2.51292371,20.4223183 C1.17503505,20.4223183 0.0752907216,19.3184858 0.0752907216,17.9710065 L0.0752907216,5.55929365 C0.0752907216,4.2118144 1.17214021,3.10962297 2.51292371,3.10962297 Z M2.56421443,16.1577912 L4.23364948,13.9514441 C7.02202887,16.588717 9.85009485,13.9480376 7.75078763,13.2729678 C6.82485773,12.9751911 5.92832165,12.9683534 5.01290722,12.5715416 C2.1361732,11.3244898 2.4059134,7.63617161 5.05731959,6.2639025 C6.81510928,5.35426138 10.1153567,5.80132423 11.3121402,7.40105335 L9.30878351,9.24331033 C7.40244124,7.29560321 5.24449485,9.23281753 6.59322062,9.95982925 C6.86036289,10.1036204 7.60357113,10.2834898 8.81923299,10.5170665 C11.5040412,11.0327801 12.4660206,14.1308908 10.9114639,16.066663 C8.91862268,18.5480607 4.76239175,18.0738459 2.56421443,16.1577912 Z M21.4739381,11.7659333 C21.4739381,12.708122 21.1458557,13.5133821 20.489666,14.1810673 C19.8336742,14.8486778 19.0365278,15.1828809 18.0992907,15.1828809 C17.1618062,15.1828809 16.360701,14.8486778 15.6963216,14.1810673 C15.0317196,13.5131086 14.699134,12.708122 14.699134,11.7659333 C14.699134,10.8240679 15.0317196,10.022985 15.6963216,9.36382833 C16.3604289,8.70462198 17.1618062,8.37462097 18.0992907,8.37462097 C19.0199753,8.37462097 19.8123711,8.70884893 20.4770474,9.37673298 C21.1413526,10.0444181 21.4739381,10.8407022 21.4739381,11.7659333 L21.4739381,11.7659333 Z" id="Fill-1" fill="#7E68AC"></path>
                                <path d="M88.218532,16.1998121 C87.9158103,16.5108416 87.5809237,16.7939731 87.2131299,17.0469192 C86.2943505,17.6814848 85.1481155,17.9987055 83.7750186,17.9987055 C82.8641567,17.9987055 82.0290557,17.8418108 81.2704082,17.5285187 C80.5111918,17.2146796 79.855967,16.7786069 79.3061196,16.2162973 C78.7533773,15.6551315 78.3222433,14.9927922 78.0116289,14.2292049 C77.6998763,13.467358 77.5431835,12.6275612 77.5431835,11.713345 C77.5431835,10.7980099 77.6998763,9.95483149 78.0116289,9.18502806 C78.3222433,8.41345924 78.7533773,7.75114483 79.3061196,7.19736376 C79.855967,6.64415456 80.5111918,6.21034447 81.2704082,5.89759939 C82.0290557,5.58438189 82.8641567,5.42910338 83.7738804,5.42798448 C85.1322804,5.42798448 86.2745814,5.74127658 87.2018474,6.3660954 C87.5809237,6.62371598 87.9197443,6.91077608 88.2162062,7.229787 L86.0194144,9.43742711 C85.8157361,9.16225222 85.5820454,8.93658245 85.320099,8.76143725 C84.8974515,8.48225918 84.3656907,8.34184962 83.7263505,8.34184962 C83.3111258,8.34184962 82.9201237,8.42198775 82.5524041,8.5823386 C82.1846845,8.74268945 81.8610804,8.96724032 81.5827052,9.25663768 C81.301534,9.54546315 81.083134,9.899707 80.9235711,10.3158385 C80.7628948,10.7337105 80.6831505,11.1988249 80.6831505,11.713345 C80.6831505,12.2267462 80.7628948,12.6912888 80.9235711,13.1091856 C81.083134,13.5287484 81.301534,13.8806798 81.5827052,14.1678145 C81.8610804,14.4583308 82.1846845,14.6823346 82.5524041,14.8426855 C82.9190103,15.0041552 83.3111258,15.0842934 83.7263505,15.0842934 C84.3815505,15.0842934 84.9365196,14.9364991 85.392,14.6396921 C85.6425897,14.4765316 85.8649237,14.2724193 86.0589773,14.0296676 L88.218532,16.1998121 Z M75.5341608,16.2237069 C75.2042969,16.5534841 74.8400165,16.8473819 74.4388454,17.1066187 C73.5195216,17.7002326 72.3987464,17.9987055 71.072066,17.9987055 C70.1769897,17.9987055 69.3509938,17.8418108 68.5911588,17.5296625 C67.8330557,17.2146796 67.1739216,16.7786069 66.6155876,16.2162973 C66.0554722,15.6551315 65.6192412,14.9927922 65.3097897,14.2292049 C64.997468,13.467358 64.8413443,12.6275612 64.8413443,11.713345 C64.8424825,10.8616381 64.9935588,10.0554828 65.2961814,9.29244249 C65.6005856,8.5300238 66.0237773,7.86370621 66.5668948,7.29398702 C67.1105814,6.72429269 67.7533113,6.26947213 68.4961237,5.93290691 C69.2389856,5.59572008 70.0576082,5.42798448 70.9521402,5.42798448 C71.8946722,5.42798448 72.7342763,5.58438189 73.468033,5.89759939 C74.2035464,6.21034447 74.8179216,6.64415456 75.3146227,7.19736376 C75.8086021,7.75114483 76.1848082,8.40604964 76.4394062,9.15998955 C76.5967175,9.6227916 76.7058309,10.1105824 76.7664247,10.6228647 C76.8388206,11.2335108 76.8212784,11.8236437 76.8212784,12.4354336 L67.9332124,12.4354336 C67.9965526,12.9175304 68.1284041,13.3309019 68.3280742,13.6754238 C68.5283876,14.0211391 68.774499,14.309343 69.0709608,14.5419251 C69.3662845,14.7761482 69.6898887,14.9438838 70.0412041,15.0479167 C70.3925938,15.1530684 70.7540536,15.2048114 71.1195464,15.2048114 C71.8386309,15.2048114 72.4338062,15.0405071 72.9051216,14.7108044 C73.1291381,14.5555259 73.3288825,14.3804553 73.507101,14.1865623 L75.5341608,16.2237069 Z M73.7797856,10.1964394 C73.7644948,9.98668286 73.696033,9.75352889 73.5755381,9.49767368 C73.4567505,9.24012768 73.2802144,8.99966357 73.0493938,8.77508784 C72.8179546,8.54991536 72.5299794,8.36574436 72.1860124,8.22075974 C71.8432082,8.076347 71.431299,8.0040909 70.9521402,8.0040909 C70.281699,8.00523467 69.6898887,8.196865 69.1790351,8.5823386 C68.6669691,8.96724032 68.3094186,9.50565517 68.0989361,10.1964394 L73.7797856,10.1964394 Z M57.0305072,0.17743273 C57.4779711,0.17743273 57.8921072,0.217265582 58.2768,0.297403711 C58.659266,0.37754184 59.0032825,0.482768202 59.3070928,0.610695808 L58.4199588,3.42841011 C58.2603959,3.34827198 58.0884124,3.28399737 57.9046021,3.2362079 C57.7212619,3.18792113 57.4932619,3.16402639 57.2222598,3.16402639 C56.7577485,3.16402639 56.3905732,3.31184556 56.1195711,3.60977142 C55.8480247,3.90655352 55.7122392,4.31873155 55.7122392,4.84918977 L55.7122392,5.81231432 L59.0654845,5.81231432 L59.0654845,5.28411876 L59.0654845,4.65706215 C59.0654845,3.93440171 59.1729897,3.29647933 59.3885196,2.74212637 C59.6041237,2.18841989 59.911868,1.72275843 60.3107381,1.34581333 C60.7107216,0.96886824 61.1826062,0.679470882 61.7257237,0.47874016 C62.2682969,0.278655914 62.8673814,0.17743273 63.5219629,0.17743273 C63.969501,0.17743273 64.3853443,0.217265582 64.768899,0.297403711 C65.1524784,0.37754184 65.4953814,0.482768202 65.7985732,0.610695808 L64.9114887,3.42841011 C64.7519258,3.34827198 64.5810804,3.28399737 64.3966268,3.2362079 C64.2133608,3.18792113 63.9853608,3.16402639 63.7137897,3.16402639 C63.2503918,3.16402639 62.8838103,3.31184556 62.6122392,3.60977142 C62.3395546,3.90655352 62.2043381,4.31873155 62.2043381,4.84918977 L62.2043381,5.81231432 L65.128132,5.81231432 L65.128132,8.5101571 L62.2043381,8.5101571 L62.2043381,23.8593563 L59.0654845,23.8593563 L59.0654845,9.93382103 L59.0654845,8.5101571 L55.7122392,8.5101571 L55.7122392,17.7565506 L52.5722722,17.7565506 L52.5722722,8.5101571 L52.5722722,5.81231432 L52.5722722,4.65706215 C52.5722722,3.93440171 52.6814598,3.29647933 52.8970639,2.74212637 C53.1120247,2.18841989 53.4192247,1.72275843 53.8192082,1.34581333 C54.2191918,0.96886824 54.6893691,0.679470882 55.2336247,0.47874016 C55.7756289,0.278655914 56.3752825,0.17743273 57.0305072,0.17743273 Z M50.5994969,16.2237069 C50.269633,16.5534841 49.9052784,16.8473819 49.5041814,17.1066187 C48.5854021,17.7002326 47.4640825,17.9987055 46.1373278,17.9987055 C45.2423258,17.9987055 44.4163299,17.8418108 43.6570392,17.5296625 C42.8983918,17.2146796 42.2392577,16.7786069 41.6808495,16.2162973 C41.1213031,15.6551315 40.6845526,14.9927922 40.3750515,14.2292049 C40.0633732,13.467358 39.9066309,12.6275612 39.9066309,11.713345 C39.9077443,10.8616381 40.0588206,10.0554828 40.3615175,9.29244249 C40.666466,8.5300238 41.0891134,7.86370621 41.6322309,7.29398702 C42.1759175,6.72429269 42.8185732,6.26947213 43.5614598,5.93290691 C44.3042722,5.59572008 45.1229443,5.42798448 46.0174021,5.42798448 C46.9605031,5.42798448 47.7995381,5.58438189 48.5333691,5.89759939 C49.2688082,6.21034447 49.8832577,6.64415456 50.3799588,7.19736376 C50.8738639,7.75114483 51.2501443,8.40604964 51.5052866,9.15998955 C51.6619794,9.6227916 51.771167,10.1105824 51.8317113,10.6228647 C51.9041567,11.2335108 51.8866144,11.8236437 51.8866144,12.4354336 L42.9991175,12.4354336 C43.0618887,12.9175304 43.1937402,13.3309019 43.3934103,13.6754238 C43.5937237,14.0211391 43.8403794,14.309343 44.1362969,14.5419251 C44.4315464,14.7761482 44.7551505,14.9438838 45.1065402,15.0479167 C45.4578557,15.1530684 45.8193897,15.2048114 46.1848825,15.2048114 C46.903967,15.2048114 47.4991423,15.0405071 47.9703835,14.7108044 C48.1944742,14.5555259 48.3941443,14.3804553 48.5723629,14.1865623 L50.5994969,16.2237069 Z M48.8450474,10.1964394 C48.8297567,9.98668286 48.7612948,9.75352889 48.6408247,9.49767368 C48.5220124,9.24012768 48.3454763,8.99966357 48.1146557,8.77508784 C47.8838351,8.54991536 47.5952907,8.36574436 47.2513485,8.22075974 C46.9084701,8.076347 46.4971794,8.0040909 46.0174021,8.0040909 C45.3469608,8.00523467 44.7551505,8.196865 44.2442969,8.5823386 C43.7323052,8.96724032 43.3747546,9.50565517 43.1648412,10.1964394 L48.8450474,10.1964394 Z M88.933633,8.5101571 L88.933633,5.81231432 L88.933633,2.20090184 L92.0730309,2.20090184 L92.0730309,5.81231432 L94.9487258,5.81231432 L94.9487258,8.5101571 L92.0730309,8.5101571 L92.0730309,13.2262475 C92.0730309,13.5065444 92.1012866,13.7681185 92.1573278,14.0085826 C92.2132948,14.2462619 92.3208247,14.450946 92.4803876,14.6146785 C93.0150186,15.2486474 93.888,15.028597 94.4837196,14.6396921 C94.734334,14.4765316 94.9566433,14.2724193 95.1507216,14.0296676 L97.3102763,16.1998121 C97.0075546,16.5108416 96.6732124,16.7939731 96.3048742,17.0469192 C95.0460866,17.916255 92.7683629,18.3250515 91.2464165,17.7167178 C90.7757443,17.5285187 90.3796701,17.2669696 90.0611876,16.9423393 C89.3092701,16.2038153 88.933633,15.1559776 88.933633,13.7959418 L88.933633,8.5101571 Z" id="Fill-2" fill="#FEFEFE" opacity="0.87"></path>
                                <path d="M63.7095093,23.8558256 C63.532701,23.8558256 63.3861773,23.801273 63.2699629,23.6915461 C63.1534763,23.5820182 63.0938474,23.4299224 63.0909773,23.2344629 L63.0909773,20.9796798 L63.4973443,20.9796798 L63.4973443,21.645525 L64.0274969,21.645525 L64.0274969,22.0183674 L63.4973443,22.0183674 L63.4973443,23.1011149 C63.4973443,23.2464476 63.5254763,23.3447616 63.5811711,23.3963554 C63.6373361,23.4481729 63.7003299,23.4742557 63.7712165,23.4742557 C63.8034804,23.4742557 63.8352,23.4703023 63.8662021,23.4630418 C63.8969072,23.4557068 63.925732,23.4459848 63.9523794,23.4340747 L64.0802474,23.7981898 C63.9744,23.8368789 63.8506887,23.8558256 63.7095093,23.8558256 Z M95.0166928,23.2167097 C95.0166928,23.4063012 94.9343505,23.5659309 94.769468,23.6961958 C94.6045113,23.8263612 94.3969732,23.8913569 94.1468041,23.8913569 C93.9286021,23.8913569 93.7374928,23.8344173 93.5723876,23.7205132 C93.4077031,23.6066092 93.2899546,23.4564776 93.2190433,23.2700688 L93.5812948,23.1144919 C93.6343175,23.2449557 93.7116124,23.3464524 93.8133031,23.4187085 C93.9147959,23.4912381 94.0259629,23.5275154 94.1468041,23.5275154 C94.2763299,23.5275154 94.3843546,23.4992693 94.4713237,23.4432995 C94.5582928,23.3868572 94.6016412,23.3203696 94.6016412,23.2434887 C94.6016412,23.1042727 94.4955216,23.0023035 94.2836289,22.9371089 L93.9126186,22.8438424 C93.4914557,22.7372733 93.2810474,22.5333102 93.2810474,22.2313066 C93.2810474,22.0329629 93.3614103,21.8740293 93.5217402,21.7543318 C93.6820701,21.6345846 93.8876536,21.5746862 94.1378227,21.5746862 C94.3293526,21.5746862 94.5020289,21.6204367 94.6568165,21.7119877 C94.811332,21.8039613 94.9195546,21.9265927 94.9813361,22.0806778 L94.6193072,22.2313066 C94.5778639,22.1398054 94.5110103,22.0679969 94.418301,22.0161794 C94.3255175,21.9643121 94.2216247,21.9385028 94.1070928,21.9385028 C94.0007753,21.9385028 93.9058144,21.9650829 93.8220619,22.0183674 C93.7382598,22.071652 93.696099,22.1366476 93.696099,22.2138269 C93.696099,22.3381492 93.8126103,22.4265174 94.0451134,22.4800257 L94.3717856,22.5642416 C94.8018557,22.6706117 95.0166928,22.8883995 95.0166928,23.2167097 Z M65.8871505,23.8913569 C65.5691629,23.8913569 65.3071175,23.781829 65.1010639,23.5630467 C64.8947381,23.3439908 64.7917608,23.0672743 64.7917608,22.7329221 C64.7917608,22.4014292 64.892066,22.1257073 65.0920825,21.9051845 C65.2923216,21.6847114 65.5486021,21.5746862 65.860701,21.5746862 C66.1816577,21.5746862 66.4368742,21.6788682 66.6270186,21.8874064 C66.816866,22.096044 66.9120495,22.3880521 66.9120495,22.7640772 L66.9073979,22.8083359 L65.2071093,22.8083359 C65.2126515,23.0215486 65.2836371,23.1930885 65.4190021,23.323055 C65.5546392,23.4535187 65.7164289,23.5187879 65.9048165,23.5187879 C66.163967,23.5187879 66.3671505,23.3883242 66.514367,23.1278939 L66.8766928,23.3055753 C66.779332,23.48905 66.6444124,23.6323936 66.4725031,23.7360784 C66.3003216,23.8395394 66.1051299,23.8913569 65.8871505,23.8913569 Z M65.2378392,22.4710745 L66.4790103,22.4710745 C66.4671588,22.3201722 66.4061443,22.1950791 66.2956948,22.096044 C66.1852206,21.9969343 66.0373113,21.9473297 65.8517938,21.9473297 C65.6986887,21.9473297 65.5669856,21.9945473 65.4565113,22.0894052 C65.3461113,22.1841387 65.273468,22.3113701 65.2378392,22.4710745 Z M68.8160165,23.8913569 C68.4948619,23.8913569 68.2284866,23.781829 68.0163216,23.5630467 C67.8073237,23.3379239 67.7029608,23.0614312 67.7029608,22.7329221 C67.7029608,22.3987687 67.8073237,22.1218284 68.0163216,21.9029964 C68.2284866,21.6840152 68.4948619,21.5746862 68.8160165,21.5746862 C69.036866,21.5746862 69.2296577,21.629935 69.3945649,21.7409547 C69.5592247,21.8518999 69.6830351,22.0052639 69.7653526,22.200425 L69.3945649,22.3557035 C69.2795381,22.0833631 69.0780371,21.9473297 68.7893691,21.9473297 C68.6038515,21.9473297 68.443299,22.0227436 68.3079588,22.1736459 C68.1754639,22.3247472 68.1093278,22.5109571 68.1093278,22.7329221 C68.1093278,22.9548622 68.1754639,23.1412958 68.3079588,23.2921982 C68.443299,23.4432995 68.6038515,23.5187879 68.7893691,23.5187879 C69.0867216,23.5187879 69.2960165,23.382481 69.4165856,23.1103396 L69.7786144,23.2656181 C69.6992165,23.4608538 69.5747381,23.6141431 69.405699,23.7251629 C69.2364124,23.8361081 69.0397361,23.8913569 68.8160165,23.8913569 Z M70.6538474,20.6423438 L71.0602144,20.6423438 L71.0602144,21.645525 L71.0423258,21.9473297 L71.0602144,21.9473297 C71.1219959,21.8406861 71.2169567,21.7521686 71.3448247,21.6810314 C71.4731629,21.6099937 71.6063505,21.5746862 71.7448825,21.5746862 C72.0095505,21.5746862 72.2134515,21.6506719 72.3563876,21.8029667 C72.4992495,21.9555598 72.570433,22.1721541 72.570433,22.4532467 L72.570433,23.8203191 L72.164066,23.8203191 L72.164066,22.5333102 C72.164066,22.1424908 71.9918845,21.9473297 71.6475216,21.9473297 C71.4825649,21.9473297 71.3433402,22.0161794 71.2302186,22.1539036 C71.1166763,22.2912051 71.0602144,22.4518294 71.0602144,22.6353042 L71.0602144,23.8203191 L70.6538474,23.8203191 L70.6538474,20.6423438 Z M76.1970062,23.2167097 C76.1970062,23.4063012 76.1146639,23.5659309 75.9497814,23.6961958 C75.7848247,23.8263612 75.5772866,23.8913569 75.3271175,23.8913569 C75.1089155,23.8913569 74.9178804,23.8344173 74.752701,23.7205132 C74.5880165,23.6066092 74.4703423,23.4564776 74.3993567,23.2700688 L74.7616082,23.1144919 C74.8147052,23.2449557 74.8919258,23.3464524 74.9936165,23.4187085 C75.0951093,23.4912381 75.2062763,23.5275154 75.3271175,23.5275154 C75.4566433,23.5275154 75.564668,23.4992693 75.6516371,23.4432995 C75.7386062,23.3868572 75.7819546,23.3203696 75.7819546,23.2434887 C75.7819546,23.1042727 75.6758351,23.0023035 75.4639423,22.9371089 L75.092932,22.8438424 C74.6717691,22.7372733 74.4613608,22.5333102 74.4613608,22.2313066 C74.4613608,22.0329629 74.5417485,21.8740293 74.7020784,21.7543318 C74.8624082,21.6345846 75.067967,21.5746862 75.3181361,21.5746862 C75.5097402,21.5746862 75.6824165,21.6204367 75.8371299,21.7119877 C75.9916454,21.8039613 76.0999423,21.9265927 76.1616495,22.0806778 L75.7996206,22.2313066 C75.7581773,22.1398054 75.6913237,22.0679969 75.5986144,22.0161794 C75.5058309,21.9643121 75.4019381,21.9385028 75.2874062,21.9385028 C75.1810887,21.9385028 75.0861278,21.9650829 75.0023753,22.0183674 C74.9185732,22.071652 74.8764124,22.1366476 74.8764124,22.2138269 C74.8764124,22.3381492 74.9929237,22.4265174 75.2254268,22.4800257 L75.552099,22.5642416 C75.9821691,22.6706117 76.1970062,22.8883995 76.1970062,23.2167097 Z M76.9705237,22.7329221 C76.9705237,22.3987687 77.0748866,22.1218284 77.2838845,21.9029964 C77.4960495,21.6840152 77.7624247,21.5746862 78.0833072,21.5746862 C78.4044619,21.5746862 78.6693526,21.6840152 78.8783505,21.9029964 C79.0905155,22.1218284 79.1963629,22.3987687 79.1963629,22.7329221 C79.1963629,23.0702332 79.0905155,23.3471735 78.8783505,23.5630467 C78.6693526,23.781829 78.4044619,23.8913569 78.0833072,23.8913569 C77.7624247,23.8913569 77.4960495,23.781829 77.2838845,23.5630467 C77.0748866,23.3439908 76.9705237,23.0672743 76.9705237,22.7329221 Z M77.3768907,22.7329221 C77.3768907,22.9665733 77.4444371,23.1561648 77.5798763,23.3009256 C77.7154392,23.4459848 77.883068,23.5187879 78.0833072,23.5187879 C78.2838186,23.5187879 78.4514474,23.4459848 78.5870103,23.3009256 C78.7224495,23.1561648 78.7899959,22.9665733 78.7899959,22.7329221 C78.7899959,22.5022297 78.7224495,22.3140306 78.5870103,22.1692698 C78.4485031,22.0212517 78.2806515,21.9473297 78.0833072,21.9473297 C77.8862103,21.9473297 77.7183835,22.0212517 77.5798763,22.1692698 C77.4444371,22.3140306 77.3768907,22.5022297 77.3768907,22.7329221 Z M80.4733113,20.6423438 L80.4733113,23.8203191 L80.0669443,23.8203191 L80.0669443,20.6423438 L80.4733113,20.6423438 Z M83.3886433,23.8203191 L82.9999423,23.8203191 L82.9999423,23.5187879 L82.9822763,23.5187879 C82.9205443,23.6250835 82.8255835,23.713949 82.6974433,23.7849868 C82.5693773,23.8558256 82.4359175,23.8913569 82.2978804,23.8913569 C82.0327175,23.8913569 81.8288165,23.8151722 81.6861773,23.6628526 C81.5430186,23.5104832 81.4718351,23.2936652 81.4718351,23.0127963 L81.4718351,21.645525 L81.8782021,21.645525 L81.8782021,22.9860173 C81.8868866,23.3411066 82.0651794,23.5187879 82.4124124,23.5187879 C82.5744247,23.5187879 82.7098639,23.4528225 82.8187794,23.3211653 C82.9277691,23.1892096 82.9822763,23.0317679 82.9822763,22.8482931 L82.9822763,21.645525 L83.3886433,21.645525 L83.3886433,23.8203191 Z M84.7923216,23.8558256 C84.6155134,23.8558256 84.4690144,23.8010741 84.3527258,23.6915461 C84.2365113,23.5820182 84.1738144,23.4299224 84.1738144,23.2344629 L84.1738144,22.0183674 L84.1738144,21.645525 L84.1738144,20.9796798 L84.5801814,20.9796798 L84.5801814,21.645525 L85.1102598,21.645525 L85.1102598,22.0183674 L84.5801814,22.0183674 L84.5801814,23.1011149 C84.5801814,23.2459503 84.6085113,23.3449854 84.6639093,23.3963554 C84.7198763,23.4479491 84.783068,23.4742557 84.8540536,23.4742557 C84.8862433,23.4742557 84.9182103,23.4700785 84.9490144,23.4630418 C84.9795216,23.4559803 85.0085691,23.4459848 85.0352165,23.4340747 L85.1630598,23.7981898 C85.0572371,23.8368789 84.933501,23.8558256 84.7923216,23.8558256 Z M86.5679505,20.8954391 C86.5679505,20.9753037 86.5398186,21.0433825 86.4841485,21.0996259 C86.4281814,21.1555958 86.3603381,21.1838667 86.280668,21.1838667 C86.2014928,21.1838667 86.1334515,21.1555958 86.0777814,21.0996259 C86.0218144,21.0433825 85.9937567,20.9753037 85.9937567,20.8954391 C85.9937567,20.8153755 86.0218144,20.7475204 86.0777814,20.691277 C86.1334515,20.6353072 86.2014928,20.6068374 86.280668,20.6068374 C86.3603381,20.6068374 86.4281814,20.6353072 86.4841485,20.691277 C86.5398186,20.7475204 86.5679505,20.8153755 86.5679505,20.8954391 Z M86.4841485,21.645525 L86.4841485,23.8203191 L86.0777814,23.8203191 L86.0777814,21.645525 L86.4841485,21.645525 Z M87.3898639,22.7329221 C87.3898639,22.3987687 87.493732,22.1210576 87.7032247,21.9029964 C87.9144247,21.6835179 88.1817649,21.5746862 88.5026474,21.5746862 C88.8238021,21.5746862 89.0882722,21.6847114 89.2976907,21.9029964 C89.508866,22.1222511 89.6157031,22.3987687 89.6157031,22.7329221 C89.6157031,23.0702332 89.5081732,23.3459551 89.2976907,23.5630467 C89.0875052,23.7803371 88.8238021,23.8913569 88.5026474,23.8913569 C88.1817649,23.8913569 87.9144247,23.7823263 87.7032247,23.5630467 C87.493732,23.3447616 87.3898639,23.0672743 87.3898639,22.7329221 Z M87.7962309,22.7329221 C87.7962309,22.9665733 87.8637773,23.1561648 87.9992165,23.3009256 C88.1347794,23.4459848 88.3024082,23.5187879 88.5026474,23.5187879 C88.7031588,23.5187879 88.8707876,23.4459848 89.0063505,23.3009256 C89.1417897,23.1561648 89.2093361,22.9665733 89.2093361,22.7329221 C89.2093361,22.5022297 89.1415175,22.3138317 89.0063505,22.1692698 C88.8681155,22.0215501 88.6999918,21.9473297 88.5026474,21.9473297 C88.3055505,21.9473297 88.1374515,22.0215501 87.9992165,22.1692698 C87.8640495,22.3138317 87.7962309,22.5022297 87.7962309,22.7329221 Z M90.4640412,21.645525 L90.8527423,21.645525 L90.8527423,21.9473297 L90.8704082,21.9473297 C90.9324124,21.8406861 91.0275959,21.7516713 91.1552412,21.6810314 C91.2830845,21.6102175 91.4164948,21.5746862 91.5550021,21.5746862 C91.8199918,21.5746862 92.0241402,21.6508708 92.1668041,21.8029667 C92.3091711,21.9553609 92.3808495,22.1726514 92.3808495,22.4532467 L92.3808495,23.8203191 L91.9744825,23.8203191 L91.9744825,22.4800257 C91.9744825,22.1249365 91.7878021,21.9473297 91.44,21.9473297 C91.2782598,21.9473297 91.1424,22.013494 91.033633,22.1446789 C90.9251134,22.2763361 90.8704082,22.4347724 90.8704082,22.6175261 L90.8704082,23.8203191 L90.4640412,23.8203191 L90.4640412,21.645525 Z" id="Fill-3" fill="#FEFEFE" opacity="0.87"></path>
                            </g>
                        </g>
                    </g>
                </g>
            </g>
        </g>
    </g>
</svg>