<?xml version="1.0" encoding="UTF-8"?>
<svg width="53px" height="28px" viewBox="0 0 53 28" version="1.1" xmlns="http://www.w3.org/2000/svg" xmlns:xlink="http://www.w3.org/1999/xlink">
    <!-- Generator: Sketch 41.2 (35397) - http://www.bohemiancoding.com/sketch -->
    <title>say Log</title>
    <desc>Created with Sketch.</desc>
    <defs></defs>
    <g id="Page-1" stroke="none" stroke-width="1" fill="none" fill-rule="evenodd">
        <g id="Home-page-Copy" transform="translate(-64.000000, -19.000000)" fill="#65499D">
            <g id="say-Log" transform="translate(64.000000, 19.000000)">
                <path d="M24.4295521,3.62229036 C22.1965368,3.62229036 20.2903965,4.40698378 18.711577,5.97570214 C17.1325347,7.54434624 16.3432364,9.44573302 16.3432364,11.6783028 C16.3432364,13.9312233 17.1274842,15.842117 18.6965739,17.4112067 C20.2657379,18.9803707 22.1765573,19.7646185 24.4295521,19.7646185 C25.8721551,19.7646185 27.1763876,19.4351438 28.3417297,18.7756746 L28.3417297,19.7649899 L32.2303628,19.7649899 L32.2303628,11.6783028 L32.2303628,3.62147336 L28.3417297,3.62147336 L28.3417297,4.60506966 C27.1763876,3.9496854 25.8721551,3.62229036 24.4295521,3.62229036 Z M3.30417944,0 L49.1889503,0 C51.006483,0 52.4933526,1.49251435 52.4933526,3.30440226 L52.4933526,20.0458901 C52.4933526,21.8605261 51.0035863,23.3500695 49.1889503,23.3500695 L48.5297781,23.3500695 L48.5297781,12.1558034 L48.5297781,3.62147336 L44.7082878,3.62147336 L44.7082878,12.174743 C44.7082878,13.2167178 44.3402655,14.1049476 43.609717,14.840101 C42.8740437,15.580602 41.9915329,15.9484015 40.9581737,15.9484015 C39.925483,15.9484015 39.0473543,15.5801564 38.3214108,14.840101 C37.6001464,14.104502 37.2362834,13.2167178 37.2362834,12.174743 L37.2362834,3.62147336 L33.3590141,3.62147336 L33.3590141,12.1558034 C33.3590141,14.2497798 34.0995151,16.0381232 35.5806657,17.5191996 C37.061742,19.0003501 38.8496398,19.7412225 40.9442847,19.7412225 C42.3384617,19.7412225 43.5936741,19.4208092 44.7082878,18.7801309 L44.7082878,28 L42.2294291,23.352372 L3.30417944,23.352372 C1.49065753,23.352372 0,21.8634227 0,20.0458901 L0,3.30440226 C0,1.48679534 1.48686961,0 3.30417944,0 Z M3.3736989,17.6000828 L5.63672053,14.6241154 C9.41632094,18.1813426 13.2497692,14.6195104 10.4041508,13.7089244 C9.14916125,13.3071822 7.93390771,13.2979723 6.69303002,12.7627617 C2.79362738,11.0807771 3.15912443,6.10575403 6.75319108,4.25472429 C9.13586639,3.02773563 13.6093987,3.6306832 15.2315936,5.78853438 L12.516027,8.27348351 C9.93214638,5.64637601 7.00690738,8.25937165 8.83498679,9.2400713 C9.19714155,9.43392363 10.2045795,9.67649899 11.8524728,9.99163899 C15.4917716,10.6872792 16.7956328,14.8660223 14.6885843,17.4770868 C11.9872038,20.8242703 6.35337995,20.1844091 3.3736989,17.6000828 Z M29.0059524,11.6761488 C29.0059524,12.9469585 28.5613547,14.0331257 27.671788,14.9338334 C26.7826668,15.8343183 25.7019958,16.2850807 24.4316318,16.2850807 C23.1608221,16.2850807 22.0748777,15.8343183 21.1743928,14.9338334 C20.2735366,14.0329029 19.8227742,12.9469585 19.8227742,11.6761488 C19.8227742,10.4057848 20.2735366,9.32533662 21.1743928,8.43599266 C22.0746549,7.54694579 23.1608221,7.10182817 24.4316318,7.10182817 C25.6797139,7.10182817 26.7536261,7.55259053 27.6547795,8.45344679 C28.5551901,9.35415451 29.0059524,10.4281409 29.0059524,11.6761488 L29.0059524,11.6761488 Z" id="say-Logo"></path>
            </g>
        </g>
    </g>
</svg>